<svg id="Camada_1" data-name="Camada 1" xmlns="http://www.w3.org/2000/svg" xmlns:xlink="http://www.w3.org/1999/xlink" viewBox="0 0 500 154.28"><defs><style>.cls-1{fill:#111;}.cls-2{fill:url(#Gradiente_sem_nome_44);}</style><linearGradient id="Gradiente_sem_nome_44" x1="413.5" y1="128.69" x2="488.72" y2="128.69" gradientUnits="userSpaceOnUse"><stop offset="0" stop-color="#5b8fc0"/><stop offset="0.51" stop-color="#87c291"/><stop offset="1" stop-color="#8fff95"/></linearGradient></defs><path class="cls-1" d="M216.48,70.81a14.14,14.14,0,0,0-4.41-10.32,14.39,14.39,0,0,0-10.61-4.27,14.54,14.54,0,0,0-10.67,4.41,13.89,13.89,0,0,0-4.27,10.18c0,.13,0,.26,0,.39h0V89.74h0v15.71h0a13.6,13.6,0,0,1-4.32,9.79,15,15,0,0,1-21.28.14,14.06,14.06,0,0,1-4.32-9.93h0V71.2h0c0-.13,0-.26,0-.39a14.15,14.15,0,0,0-4.42-10.32,14.37,14.37,0,0,0-10.6-4.27,14.55,14.55,0,0,0-10.68,4.41,13.89,13.89,0,0,0-4.27,10.18c0,.13,0,.26,0,.39h0v38.53h0c0,.36,0,.7,0,1.07a31.92,31.92,0,0,0,9.82,23.35,34,34,0,0,0,48.17-.32c.75-.73,1.46-1.49,2.13-2.25a14.11,14.11,0,0,0,4.16,8.06,14.43,14.43,0,0,0,10.6,4.34,14.29,14.29,0,0,0,10.68-4.49,13.63,13.63,0,0,0,4.34-10.17c0-.11,0-.22,0-.33h0V71.2h0C216.47,71.07,216.48,70.94,216.48,70.81Z"/><path class="cls-1" d="M113.86,38.7a14.14,14.14,0,0,0-4.41-10.32,14.38,14.38,0,0,0-10.6-4.27,14.55,14.55,0,0,0-10.68,4.41A13.89,13.89,0,0,0,83.9,38.7c0,.13,0,.26,0,.39h0V129h0c0,.1,0,.21,0,.32a14.13,14.13,0,0,0,4.34,10.32A14.44,14.44,0,0,0,98.85,144a14.27,14.27,0,0,0,10.67-4.49,13.59,13.59,0,0,0,4.34-10.17c0-.11,0-.22,0-.32h0V39.09h0C113.85,39,113.86,38.83,113.86,38.7Z"/><path class="cls-1" d="M230.4,60.55a14.67,14.67,0,0,0-4.47,10.75,14.05,14.05,0,0,0,2.61,8.39l-.15.15,20.08,20.08L228.39,120l.15.15a15,15,0,0,0,1.91,19.19,14.66,14.66,0,0,0,10.75,4.46,14.05,14.05,0,0,0,8.39-2.61l.15.15,20.08-20.07,18.05,18v0a2.5,2.5,0,0,0,.22.24,14.2,14.2,0,0,0,10.44,4.26,15.14,15.14,0,0,0,15.06-15.26,13.72,13.72,0,0,0-4.15-10.34l-.24-.22h0l-18.05-18L269.82,78.57,249.74,58.49l-.16.16a15,15,0,0,0-19.18,1.9Z"/><path class="cls-1" d="M56.55,56.22c-.46,0-.91,0-1.36.06V50.65c0-4.36,1.33-6.79,4-8.57A19.85,19.85,0,0,1,61,41.13c1.12-.55,4.1-1.57,4.73-1.82a14.51,14.51,0,0,0,3.62-2.06l.18-.15A15.22,15.22,0,0,0,71,35.72,14,14,0,0,0,75.47,25.3,14.52,14.52,0,0,0,71,14.72a14.82,14.82,0,0,0-10.87-4.37c-20.32,0-30.82,19-32.41,22.28a29.32,29.32,0,0,0-2.81,12.88h0v10.8a14.78,14.78,0,0,0-9.2,4.43,14.2,14.2,0,0,0-4.37,10.42,14.47,14.47,0,0,0,4.44,10.58,14.64,14.64,0,0,0,9.13,4.35V129h0c0,.11,0,.22,0,.33a14.13,14.13,0,0,0,4.34,10.32A14.44,14.44,0,0,0,39.8,144a14.27,14.27,0,0,0,10.67-4.49,13.61,13.61,0,0,0,4.34-10.17c0-.11,0-.22,0-.33h0V86.09a16.25,16.25,0,0,0,1.73.1,14.63,14.63,0,0,0,10.94-4.6,14,14,0,0,0,4.45-10.43,14.51,14.51,0,0,0-4.52-10.57A14.78,14.78,0,0,0,56.55,56.22Z"/><path class="cls-1" d="M279.86,62.13A19.75,19.75,0,0,0,274,76.65a19.9,19.9,0,0,0,6,14.61A19,19,0,0,0,294,97.1a19.29,19.29,0,0,0,14.12-5.94,19.74,19.74,0,0,0,5.94-14.51A19.53,19.53,0,0,0,307.92,62,18.68,18.68,0,0,0,294,56.09,19.39,19.39,0,0,0,279.86,62.13Z"/><path class="cls-1" d="M398.31,68.92a42.47,42.47,0,0,0-31.43-13.06c-.86,0-1.64,0-2.33.08s-1.64-.08-2.5-.08a42.64,42.64,0,0,0-31.43,13.06A42,42,0,0,0,317.81,99.7a44,44,0,0,0,44.24,43.92c.86,0,1.69,0,2.5-.08s1.47.08,2.33.08a42.5,42.5,0,0,0,31.43-13.05,41.77,41.77,0,0,0,12.9-30.87A41.82,41.82,0,0,0,398.31,68.92Zm-23.11,41a14.62,14.62,0,0,1-10.93,4.59A14.78,14.78,0,0,1,353.4,110,14.45,14.45,0,0,1,349,99.45,14.25,14.25,0,0,1,353.33,89a14.91,14.91,0,0,1,10.94-4.52,14.75,14.75,0,0,1,10.86,4.38,14.49,14.49,0,0,1,4.52,10.57A14,14,0,0,1,375.2,109.88Z"/><path class="cls-2" d="M474.13,143.67a14.14,14.14,0,0,0,10.32-4.41,14.39,14.39,0,0,0,4.27-10.61A14.54,14.54,0,0,0,484.31,118a13.89,13.89,0,0,0-10.18-4.27h-.39v0H428.48v0h-.32a14.06,14.06,0,0,0-10.32,4.34,14.43,14.43,0,0,0-4.34,10.6A14.28,14.28,0,0,0,418,139.33a13.65,13.65,0,0,0,10.18,4.34h45.58v0Z"/></svg>