<svg id="Camada_1" data-name="Camada 1" xmlns="http://www.w3.org/2000/svg" xmlns:xlink="http://www.w3.org/1999/xlink" viewBox="0 0 141 154.28"><defs><style>.cls-1{fill:#192c2b;}.cls-2{fill:url(#Gradiente_sem_nome_44);}</style><linearGradient id="Gradiente_sem_nome_44" x1="68" y1="104.56" x2="122.19" y2="104.56" gradientTransform="translate(-2.51 143.06) rotate(-90)" gradientUnits="userSpaceOnUse"><stop offset="0" stop-color="#5b8fc0"/><stop offset="0.51" stop-color="#87c291"/><stop offset="1" stop-color="#8fff95"/></linearGradient></defs><path class="cls-1" d="M18,26.76A19.32,19.32,0,0,0,12.05,41a18.58,18.58,0,0,0,3.44,11.09l-.2.2L41.83,78.78,15.29,105.32l.21.2A19.84,19.84,0,0,0,18,130.88a19.38,19.38,0,0,0,14.21,5.9,18.47,18.47,0,0,0,11.08-3.45l.21.2L70,107,93.9,130.85h0l.29.31A18.75,18.75,0,0,0,108,136.78a20,20,0,0,0,19.9-20.17,18.14,18.14,0,0,0-5.5-13.67l-.31-.29h0L98.26,78.78,70,50.57,43.51,24l-.21.2A19.06,19.06,0,0,0,32,20.79,19.14,19.14,0,0,0,18,26.76Z"/><path class="cls-2" d="M83.32,28.85A26,26,0,0,0,75.6,48a26.31,26.31,0,0,0,8,19.31A25.11,25.11,0,0,0,102,75.06a25.51,25.51,0,0,0,18.67-7.85A26.07,26.07,0,0,0,128.5,48a25.82,25.82,0,0,0-8.11-19.31A24.67,24.67,0,0,0,102,20.87,25.56,25.56,0,0,0,83.32,28.85Z"/></svg>